<?xml version="1.0" encoding="UTF-8"?>
<svg id="Layer_3" xmlns="http://www.w3.org/2000/svg" viewBox="0 0 504 504">
  <defs>
    <style>
      .cls-1 {
        fill: none;
        stroke: #ffbd6e;
        stroke-miterlimit: 10;
      }

      .cls-2 {
        fill: #ffe092;
      }

      .cls-3 {
        fill: #fccf5e;
      }

      .cls-4 {
        fill: #ffdb76;
      }

      .cls-5 {
        fill: #ffbd6e;
      }

      .cls-6 {
        fill: #fde9e2;
      }
    </style>
  </defs>
  <g>
    <path class="cls-4" d="M194.31,232.15v17.52s3.54,12.33,51.62,19.41h35.35s46.72-3.33,53.29-19.3v-17.63h-140.27Z"/>
    <ellipse class="cls-6" cx="264.44" cy="232.15" rx="70.13" ry="19.75"/>
  </g>
  <g>
    <path class="cls-4" d="M242.52,208.96h41.8l-10.75,156.11s-1.95,9.46-10.15,9.36c0,0-10.63.78-11.3-10.97l-9.6-154.5Z"/>
    <path class="cls-2" d="M179.97,201.88l31.55,5.69s-3.09,57.18-11.75,71.12c0,0-25.27,45.34-35.69,45.99,0,0-14.37.07-8.36-15.33,0,0,13.19-19.03,20.26-49.65,0,0,5.54-29.78,3.99-57.8Z"/>
    <path class="cls-2" d="M346.86,198.49l-31.55,5.84s3.09,58.76,11.75,73.08c0,0,25.27,46.59,35.69,47.25,0,0,14.37.07,8.36-15.76,0,0-13.19-19.56-20.26-51.02,0,0-5.54-30.6-3.99-59.4Z"/>
    <path class="cls-1" d="M331.62,205.02s4.57,56.74,9.26,67.46c0,0,18.48,38.42,29.32,48.71"/>
    <path class="cls-1" d="M195.47,205.02s-3.62,52.85-9.26,67.46c0,0-17.16,39.85-28.01,50.15"/>
    <path class="cls-3" d="M242.52,208.96h41.78l-2.14,31.26s-9.39,5.11-37.65.19l-1.99-31.45Z"/>
    <line class="cls-1" x1="263.91" y1="242.14" x2="263.91" y2="374.19"/>
  </g>
  <path class="cls-3" d="M264.27,208.42v166.08s6.47.61,8.98-9.89l11.03-156.2-20.01.02Z"/>
  <path class="cls-5" d="M263.42,242.5v-34.15h20.88l-2.14,31.87s-5.5,2.95-18.74,2.28Z"/>
  <g>
    <path class="cls-4" d="M123.71,138.97v32.32s-2.02,18.56,56.45,32.1c0,0,54.05,7.56,83.99,7.55,0,0,54.05.05,82.74-7.62,0,0,53.42-11.65,56.15-29.65v-34.7H123.71Z"/>
    <ellipse class="cls-6" cx="263.42" cy="138.97" rx="139.63" ry="39.48"/>
    <ellipse class="cls-5" cx="264.44" cy="134.62" rx="124.09" ry="35.3"/>
  </g>
</svg>