<?xml version="1.0" encoding="UTF-8"?>
<svg xmlns="http://www.w3.org/2000/svg" viewBox="0 0 720 504">
  <defs>
    <style>
      .cls-1 {
        fill: #ffecae;
      }

      .cls-2, .cls-3 {
        stroke-width: .5px;
      }

      .cls-2, .cls-3, .cls-4, .cls-5, .cls-6 {
        fill: none;
      }

      .cls-2, .cls-3, .cls-7, .cls-8, .cls-9, .cls-10, .cls-5, .cls-11, .cls-12, .cls-13, .cls-14, .cls-15, .cls-16, .cls-17, .cls-18, .cls-6, .cls-19, .cls-20, .cls-21 {
        stroke-miterlimit: 10;
      }

      .cls-2, .cls-16 {
        stroke: #f69cc8;
      }

      .cls-3, .cls-14 {
        stroke: #ac96f9;
      }

      .cls-22, .cls-7 {
        fill: #ffcfe5;
      }

      .cls-23, .cls-14 {
        fill: #ac96f9;
      }

      .cls-4 {
        stroke: #b5328a;
        stroke-linecap: round;
        stroke-linejoin: round;
      }

      .cls-4, .cls-10 {
        stroke-width: .25px;
      }

      .cls-24, .cls-16 {
        fill: #f69cc8;
      }

      .cls-25, .cls-17 {
        fill: #fdd5d2;
      }

      .cls-7 {
        stroke: #ffcfe5;
      }

      .cls-8 {
        stroke: #af9fff;
      }

      .cls-8, .cls-26 {
        fill: #af9fff;
      }

      .cls-27 {
        fill: #ffd071;
      }

      .cls-9 {
        fill: #ea65c4;
      }

      .cls-9, .cls-6 {
        stroke: #ea65c4;
      }

      .cls-10 {
        stroke: #ffecbb;
      }

      .cls-10, .cls-28 {
        fill: #ffecbb;
      }

      .cls-5, .cls-12 {
        stroke: #ffbd6e;
      }

      .cls-11 {
        stroke: #fcde95;
      }

      .cls-11, .cls-29 {
        fill: #fcde95;
      }

      .cls-30 {
        fill: #ffe092;
      }

      .cls-12, .cls-31 {
        fill: #ffbd6e;
      }

      .cls-13 {
        fill: #dbb6ff;
        stroke: #dbb6ff;
      }

      .cls-32 {
        fill: #ffc5c5;
      }

      .cls-33 {
        fill: #d2ccff;
      }

      .cls-34 {
        fill: #fcd5d2;
      }

      .cls-35 {
        fill: #fccf5e;
      }

      .cls-36 {
        fill: #ffe3f2;
      }

      .cls-37, .cls-20 {
        fill: #ffa9cc;
      }

      .cls-15 {
        stroke: #ffdb76;
      }

      .cls-15, .cls-38 {
        fill: #ffdb76;
      }

      .cls-39, .cls-19 {
        fill: #b5318a;
      }

      .cls-40 {
        fill: #d5ccff;
      }

      .cls-17 {
        stroke: #fdd5d2;
      }

      .cls-18 {
        stroke: #fde9e2;
      }

      .cls-18, .cls-41 {
        fill: #fde9e2;
      }

      .cls-42 {
        fill: #f798e1;
      }

      .cls-43 {
        fill: #6c5dba;
      }

      .cls-19 {
        stroke: #b5318a;
      }

      .cls-20 {
        stroke: #ffa9cc;
      }

      .cls-21 {
        fill: #6d5dba;
        stroke: #6d5dba;
      }
    </style>
  </defs>
  <g id="Layer_3">
    <g>
      <path class="cls-38" d="M452.45,365.27v4.17s.82,2.93,11.92,4.61h8.17s10.79-.79,12.31-4.59v-4.19h-32.4Z"/>
      <ellipse class="cls-28" cx="468.65" cy="365.27" rx="16.2" ry="4.7"/>
    </g>
    <g>
      <path class="cls-38" d="M462.56,357.11h11.78l-3.03,43.99s-.55,2.66-2.86,2.64c0,0-3,.22-3.18-3.09l-2.71-43.54Z"/>
      <path class="cls-30" d="M444.93,355.12l8.89,1.6s-.87,16.11-3.31,20.04c0,0-7.12,12.78-10.06,12.96,0,0-4.05.02-2.36-4.32,0,0,3.72-5.36,5.71-13.99,0,0,1.56-8.39,1.13-16.29Z"/>
      <path class="cls-30" d="M491.96,354.16l-8.89,1.65s.87,16.56,3.31,20.6c0,0,7.12,13.13,10.06,13.32,0,0,4.05.02,2.36-4.44,0,0-3.72-5.51-5.71-14.38,0,0-1.56-8.62-1.13-16.74Z"/>
      <path class="cls-5" d="M487.67,356s1.29,15.99,2.61,19.01c0,0,5.21,10.83,8.26,13.73"/>
      <path class="cls-5" d="M449.3,356s-1.02,14.89-2.61,19.01c0,0-4.84,11.23-7.89,14.13"/>
      <path class="cls-35" d="M462.56,357.11h11.77l-.6,8.81s-2.65,1.44-10.61.05l-.56-8.86Z"/>
      <line class="cls-5" x1="468.59" y1="366.46" x2="468.59" y2="403.68"/>
    </g>
    <path class="cls-35" d="M468.69,356.96v46.8s1.82.17,2.53-2.79l3.11-44.02h-5.64Z"/>
    <path class="cls-31" d="M468.45,366.57v-9.62h5.88l-.6,8.98s-1.55.83-5.28.64Z"/>
    <g>
      <path class="cls-38" d="M429.08,337.39v9.11s-.57,5.23,15.91,9.05c0,0,15.23,2.13,23.67,2.13,0,0,15.23.01,23.32-2.15,0,0,15.05-3.28,15.82-8.36v-9.78h-78.72Z"/>
      <ellipse class="cls-41" cx="468.45" cy="337.39" rx="39.35" ry="11.13"/>
      <ellipse class="cls-31" cx="468.74" cy="336.16" rx="34.97" ry="9.95"/>
    </g>
  </g>
  <g id="Layer_2">
    <path class="cls-9" d="M634.62,329.91l-28.12,19.09-41.55-5.73-1.05-17.16c0-8.43-1.99-24.91-2.66-30.17-.12-.92-.35-1.82-.7-2.69-1.74-4.3-6.78-20-6.78-20-4.72-14.22,1.91-17.6,1.91-17.6,3.89-1.69,8.84-.14,10.82.29.51.11.99.29,1.45.53,10.47,5.29,18.23,2.59,18.23,2.59,13.48-5.39,22.13-4.72,22.13-4.72,7.48-.13,25.96,7.25,25.96,7.25l.36,68.33"/>
    <path class="cls-19" d="M564.76,323.86l.19,19.41,43.3,4,.72-9.35s-25.26,18.61-44.21-14.06Z"/>
    <g>
      <polygon class="cls-14" points="318.3 331.11 324.58 330.76 324.58 333.2 319.26 333.2 318.3 331.11"/>
      <path class="cls-14" d="M343.14,328.41s1.49,4.4,7.92,3.21c0,0,2.44-.65,4.7,3.51,0,0,3.43,7.82,6.12,9.28.24.13.51.18.78.18h.49l-4.64-10.59s-2.5-8.87-15.36-5.59Z"/>
      <path class="cls-16" d="M352,327.84l11.79-.61s.05.01.05.04c.11.81,1.76,12.81,5.17,16.91.03.03,0,.08-.04.08l-5.4.35s-.04,0-.05-.03c-.26-.8-5.23-15.59-11.54-16.63-.06-.01-.06-.09,0-.1Z"/>
      <path class="cls-14" d="M207.52,338.36l2.44.91s.49,12.81-2.54,23.47l-2.11-1.71s2.87-5.29,2.21-22.67Z"/>
      <path class="cls-16" d="M210.46,339.33l17.16-.35c.18,0,.32.15.3.33l-.36,3.63c-.02.17-.17.29-.34.27-1.23-.18-5.89-.39-9.78,5.69-.01.02-.02.03-.03.05-.22.55-3.82,9.62-4.11,12.9-.01.14-.11.25-.25.27l-4.74.69c-.2.03-.38-.15-.34-.35.48-2.51,2.93-15.92,2.21-22.82-.02-.17.11-.32.29-.33Z"/>
      <path class="cls-14" d="M329.51,268.38s-8,9.97-6.77,24.26l32.85,14.99s6.47-.41,6.54.49c0,0,1.12-36.16,11.94-34.74,0,0-14.82-5.87-44.55-5.01Z"/>
      <path class="cls-7" d="M182.85,275.43s-4.46-41.02,39.83-35.24l78.16-.56s23.85-5.03,28.31,29.26c0,0-8.25,11.48-6.35,23.55l-108.88,4.36s.45-10.51-3.69-13.19c-4.14-2.68-27.39-8.19-27.39-8.19Z"/>
      <path class="cls-14" d="M177.07,276.73s3.26-1.3,5.71-.98c0,0,1.84-25,11.35-30.56,0,0,7.44-6.1,25.28-5.38,0,0,73.14-1.23,83.35.05.2.03.4.04.6.04,1.74.03,10.67.59,17.36,8.25,0,0,7.83,9.14,8.82,20.61,0,0-1.48-14.59-6.85-20.81,0,0-5.3-7.58-15.17-9.38-.5-.09-1.01-.13-1.53-.14-9.07-.16-95.55-1.65-100.23-.5,0,0-24.11,3.85-26.81,21.33,0,0-1.69,6.49-1.87,17.46Z"/>
      <path class="cls-14" d="M197.66,250.92c5.01.52,30.95,2.76,43.75-5.38,0,0,1.87,0,1.43,6.06,0,0-.44,4.63,1.1,10.24l6.39,21.03s1.87,5.18,4.74,8.37-2.31,1.98-2.31,1.98c0,0-28.41,0-36.78,2.2-8.37,2.2-4.74,0-4.74,0,0,0-4.03-25.11-6.48-29.4l-2.44-4.3-3.63-5.64c-.25-.39-.55-.75-.89-1.07-.63-.6-1.65-1.8-1.48-3.07.08-.65.69-1.1,1.34-1.03Z"/>
      <path class="cls-14" d="M199.3,304l-23.26-9.68s-10.02-7.7-3.41-14.05c0,0,4.28-5.41,15.64-5.08l17.64,3.41s10.29,2.67,9.29,11.83c0,0-3.21-8.09-10.56-8.49,0,0-7.28,1.67-9.29,9.62l7.69,10.43-3.74,2Z"/>
      <path class="cls-16" d="M176.26,294.96l4.59,24.31s.92,4.2,3.54,5.77l21.88,12.42c1.06.6,2.2,1.06,3.39,1.35.59.14,1.29.3,2.01.44l-10.51-36.6-24.91-7.69Z"/>
      <path class="cls-13" d="M217.13,339.86s.79-41.74-2.23-50c0,0-.51-1.76-1.19-3.4s-1.72-2.98-3.14-3.93c-.64-.43-1.36-.79-2.12-.9-2.26-.34-5.04-.36-7.31.79,0,0-5.99,3.29-6.33,9.13,0,0-.29,5.4,2.89,8.49,0,0,.99.78,1.97,2.01.92,1.15,1.51,2.52,1.75,3.97l4.59,27.51s1.68,8.08,11.11,6.35Z"/>
      <polygon class="cls-13" points="216.33 339.65 361.32 327.14 363.21 307.43 216.26 313.17 216.33 339.65"/>
      <path class="cls-22" d="M361.88,327.15c-.8,0-1.42-.7-1.35-1.5l3.55-38.15s1.04-9.47,6.5-13.49c3.26-2.4,7.94-1.11,9.3,2.7.72,2.02,1.02,4.95.28,9.19,0,0-.55,3.21-4.61,4.69-.43.16-.75.51-.86.96-.65,2.65-2.83,12.33-4.21,26.65,0,0-1.01,8.94-8.62,8.95Z"/>
      <path class="cls-16" d="M264.71,291.72c1.51.1,16.37,1.27,23.37,6.98v15.13c0,.75.49,1.42,1.21,1.64s1.9.41,3.54.32c0,0,61.47-2.43,64.57-4.95,0,0,2.51-1.16,2.22-3.49l.58-11.83s.35-1.95-5.06-3.02c0,0-25.42-3.49-39.49-2.62,0,0-42.49,0-50.94,1.82-.02,0-.02.03,0,.04Z"/>
      <path class="cls-7" d="M216.13,295.6l.58,23.28c.01.41.25.79.63.96.98.45,3.11,1.19,6.18.98l61.1-5.04c.11,0,.22-.03.33-.08.63-.26,2.71-1.39,2.71-4.7l.99-11.08c.01-.14,0-.28-.04-.41-.25-.78-1.52-3.33-7.56-4.67-.03,0-.05-.01-.08-.02-.65-.2-10.09-3.17-14.55-3.17,0,0-42.6,1.28-49.45,2.87-.5.12-.84.57-.83,1.09Z"/>
      <line class="cls-2" x1="217.34" y1="300.48" x2="283.67" y2="297.83"/>
      <path class="cls-2" d="M216.79,302.93s3.2,1.25,7.2.7l61.5-3.08"/>
      <path class="cls-3" d="M290.91,297.36s49.27-4.09,64.23-3.66"/>
      <path class="cls-3" d="M290.91,299.15s49.81-1.07,66.49-3.64"/>
      <path class="cls-2" d="M217.34,318.21s2.61.9,5.11.8c0,0,58.93-2.2,63.63-6.4"/>
      <path class="cls-3" d="M290.91,312.84s24.79-.1,31.59-1.2c0,0,23.91-2.7,29.61-2.6,0,0,6.21.2,6.61-1.6"/>
      <path class="cls-14" d="M243.08,254.37s-.47,2.96.64,3.27,1.92.08,2.17-1.63c0,0,.02-2.42-2.82-1.63Z"/>
      <path class="cls-14" d="M254.36,272.52s2.64-.61,3.07,1.16c0,0-.18,2.7-2.27,2.08,0,0-1.48-.61-.8-3.25Z"/>
      <path class="cls-14" d="M264.41,255s1.01-.27,1.98.09c.86.32.91,1.52.07,1.9-.41.18-.94.23-1.56-.09,0,0-.67-.12-.49-1.9Z"/>
      <path class="cls-14" d="M275.49,273.75s1.25-2.83,2.91-.25c0,0,.08,1.47-.96,1.81s-1.83-.53-1.96-1.56Z"/>
      <path class="cls-14" d="M285.68,253.07s-1.2-.08-1.2,1.16c0,0,.04,1.51.77,2.24,0,0,1.78.54,2.52-1.04,0,0,.08-2.17-2.09-2.36Z"/>
      <path class="cls-14" d="M306.1,253.94s-1.98-1.23-2.85.4c0,0-.16,2.97,1.42,2.49,0,0,1.86-.67,1.42-2.89Z"/>
      <path class="cls-14" d="M295.95,274.79s-1.8-1.25,0-2.87c0,0,1.18-.07,1.36,1.69,0,0,0,1.54-1.36,1.18Z"/>
      <path class="cls-3" d="M244.79,255.26s5.89-5.12,2.73-12.99"/>
      <path class="cls-3" d="M245.41,257.75s7.81,9.48,8.95,14.77"/>
      <path class="cls-3" d="M251.14,250.57c-.44,3.93-5.24,5.43-5.24,5.43"/>
      <path class="cls-3" d="M254.88,275.2s-2.41,3.18-4.66,2.63"/>
      <path class="cls-3" d="M255.16,275.76s-.83,5.11-3.2,8.33"/>
      <path class="cls-3" d="M256.24,275.76s7.28,5.78,7.33,14.97"/>
      <path class="cls-3" d="M256.78,275.39s6.91.76,8.53-1.49"/>
      <path class="cls-3" d="M257.26,273.25s6.07-5.32,7.64-16.36"/>
      <path class="cls-3" d="M257.26,247.26s6.12,5.36,7.12,8.43"/>
      <path class="cls-3" d="M265.31,255s1.49-3.35.64-8.85"/>
      <path class="cls-3" d="M266.21,255s3.83-2.31,5.08-8.23"/>
      <path class="cls-3" d="M265.95,257.22s6.81,6.64,10.55,15.77"/>
      <path class="cls-3" d="M284.92,255s.56,9.54-7.73,17.99"/>
      <path class="cls-3" d="M281.65,241.12s2.47,5.97,3.26,12.17"/>
      <path class="cls-3" d="M285.7,245.31s2.9,4.36.42,7.76"/>
      <path class="cls-3" d="M291.31,242.27s3.11,7.97-4.19,12.73"/>
      <path class="cls-3" d="M287.77,255.98s5.13.65,7.86,0"/>
      <path class="cls-3" d="M286.67,256.45s8.92,8.69,9.28,15.47"/>
      <path class="cls-3" d="M278.4,274.42s7.18.43,8.26.97"/>
      <path class="cls-3" d="M276.73,275.39s1.45,8.91-6.02,13.42"/>
      <path class="cls-3" d="M278.01,274.91s5.95.2,6.9,14.18"/>
      <path class="cls-3" d="M295.95,274.79s-1.61,11.82-7.85,14.93"/>
      <path class="cls-3" d="M305.02,285.76c-.07-5.96-7.71-11.34-7.71-11.34,0,0,8.06.71,9.89.37"/>
      <path class="cls-3" d="M297.07,272.7s7.65-8.29,7.6-15.87"/>
      <path class="cls-3" d="M300.87,242.27s3.68,7.76,3.22,11.99"/>
      <path class="cls-3" d="M305.63,254.03s4.47-3.54,4.78-10.13"/>
      <path class="cls-3" d="M306.16,254.43s2.78-1.61,5.36-4.34"/>
      <path class="cls-3" d="M305.88,255.75s13.39,10.64,8.77,30.01"/>
      <path class="cls-16" d="M185.36,326.35l9.61,5s-3.56,9.74-6.06,13.69c0,0-3.82.4-4.61,1.05s6.72-11.98,1.05-19.75Z"/>
      <path class="cls-14" d="M184.61,325.79l2.64,1.54s2.65,6.84-3.27,18.56l-1.58-1.32s3.79-10.23,2.21-18.79Z"/>
    </g>
    <path class="cls-9" d="M613.1,382.86l2.91-61.09s1.79-2.68,19.92,6.72c0,0,4.48,4.03,1.79,13.65,0,0-4.03,36.92-7.38,40.73h-17.23Z"/>
    <g>
      <path class="cls-9" d="M528.31,322.06s.3-2.81,35.82,3.26l2.88,58.74h-24.44l-14.27-62Z"/>
      <path class="cls-8" d="M554.3,383.07s-14.31-22.28-8.65-33.24c0,0,1.77-7.62,21.19-7.12,0,0,31.7.88,41.48,2.76,0,0-1.25,33.99,2.26,37.61h-56.27Z"/>
      <g>
        <path class="cls-9" d="M545.21,388.89h4.34s-2.17,5.54-4.34,6.86h-3.37s2.41-1.08,3.37-6.86Z"/>
        <rect class="cls-9" x="543.53" y="387.15" width="8.65" height="1.84"/>
        <path class="cls-9" d="M565.49,387.15h5.89v.92h-1.32s-1.32,3.7-2.8,5.18h-2.56s2.27-2.7,2.14-5.18h-1.36v-.92Z"/>
        <rect class="cls-8" x="540.06" y="383.07" width="71.94" height="4.37"/>
        <rect class="cls-9" x="612.01" y="383.07" width="17.7" height="4.37"/>
        <rect class="cls-9" x="606.18" y="387.83" width="8.22" height="1.83"/>
        <path class="cls-9" d="M608.5,389.36h4s-.52,5.63,1.56,7.93h-3.33s-2.3-2.22-2.22-7.93Z"/>
        <rect class="cls-9" x="624.72" y="387.09" width="4.9" height="1.83"/>
        <path class="cls-9" d="M625.48,388.92h4.15s0,3.56,1.41,4.74h-2.78s-1.45-1.85-2.78-4.74Z"/>
        <path class="cls-8" d="M616.23,321.72c-.93-.55-2.11-.31-2.79.53-1.24,1.54-3.37,5.19-4.29,12.76,0,0-2.84,33.74-1.34,41.8,0,0,2.54,16.27,7.76,0,0,0,4.27-16.64,4.48-44.81,0-.45-.02-.9-.07-1.35-.23-2.01-1.09-7.35-3.75-8.93Z"/>
        <path class="cls-8" d="M532.49,325.01c-1.53-2.06-5.46-6.49-5.58,2.23,0,0,1.33,40.67,13.14,55.57.68.86,2.02.78,2.54-.19.78-1.45,1.3-4.85.37-12.56,0,0-5.8-34.41-9.42-43.2-.27-.66-.63-1.28-1.06-1.86Z"/>
      </g>
      <path class="cls-6" d="M547.62,373.01s46.11,3.01,59.66,0"/>
      <path class="cls-33" d="M554.17,355.23s-9.52,1-5.54-5.87c0,0,2.77-5.76,15.5-4.54,0,0,21.08,2.22,28.82,4.79.86.29,1.62.83,2.12,1.59.92,1.4.87,3.47-7.69,3.25,0,0-20.37-.89-33.21.77Z"/>
    </g>
    <path class="cls-19" d="M634.32,329.38l9.73-46.31s1.38-8.34,2.53-13.04c0,0,4.42-13.1-3.05-17.22,0,0-8.23-3.81-7.92,8.07,0,0-.05,1.77-4.39-.48l1.22,23.1c.03.54.03,1.08,0,1.62,0,0,1.63,23.01-2.65,41.8-3.2,14.01,0,0,0,0l4.52,2.45"/>
    <path class="cls-8" d="M533.45,323.86s4.35,8.1,4.55,12.05l25.3.99v-8.7l-29.84-4.35Z"/>
    <path class="cls-8" d="M615.67,322.15c.95,1.1,3.1,4.29,3.22,10.9,0,.05.01.09.04.13.39.59,3.94,5.27,17.08,4.17.1,0,.18-.08.21-.17.31-1.04,1.76-7.02-4.81-9.5,0,0-11.2-5.24-15.52-5.92-.22-.03-.36.22-.22.39Z"/>
    <path class="cls-26" d="M575.21,263.03s10.4,1.34,17.78-2.85c0,0,12.7-6.54,22.62-2.01,0,0-4.66-3.68-14.29-2.26-1.05.15-2.07.45-3.06.85-2.64,1.07-8.52,3.39-12.1,4.26,0,0-8.49,1.82-10.95,2.01Z"/>
    <path class="cls-19" d="M563.81,294.06s-18.04-35.52-4.95-36.62c0,0,8.69-1.43,14.52,3.19,0,0-12.74,18.04-9.57,33.43Z"/>
    <path class="cls-26" d="M635.54,261.13s4.1,28.7-2.57,66.53c0,0,7.16-43.93,2.57-66.53Z"/>
    <g>
      <g>
        <path class="cls-37" d="M469,330.13s-7.34,3.27-7.26,6.39c0,0-.32,6.47,11.65,7.42,0,0,14.05,2.71,21.79-3.03,0,0,9.33-5.99-4.48-10.78h-21.71Z"/>
        <path class="cls-28" d="M472.27,333.04h15.42s3,1.49,3.58,2.89l-4.07,4.33-6.97.99s-9.79.07-11.39-3.95c0,0-1.3-2.51,3.43-4.26Z"/>
        <g>
          <path class="cls-25" d="M467.13,317.64l25.73-.21s1.65,3.31-.27,9.51c0,0-.76,3.61-5.27,6.68-.17.12-.32.26-.43.44-.27.43-.74,1.31-.7,2.19.01.27-.15.51-.41.6-1.41.46-5.86,1.6-11.67.1-.06-.01-.1-.06-.11-.12-.04-.26-.19-1.01-.82-1.92,0,0-1.23-1.97-3.27-3.49,0,0-3.91-3.54-3.61-8.31,0,0-.1-3.82.84-5.46Z"/>
          <path class="cls-25" d="M489.61,314.66s2.82,1.74,2.88,2.43c0,0,3.43-3.64,3.22-1.21,0,0-.32,3.45-2.32,5.05,0,0-.07,4.19-.65,5.51,0,0,4.93-7.81,4.98-10.98,0,0,.37-5.28-8.1-.79Z"/>
          <path class="cls-18" d="M467.36,319.38s-1.8-2.39,3.08-4.85c.33-.16.67-.3,1.02-.4,2.08-.6,10.1-2.64,15.94-.52,0,0,9.16,3.33,4.27,7.24,0,0-3.9,4.06-13.95,3.33,0,0-7.83-.35-10.36-4.79Z"/>
          <path class="cls-20" d="M468.18,319.41c.3-.87.08-1.87,1.89-2.89.01,0,.47-.28.48-.28.35-.15,6.23-2.7,13.35-2.07,0,0,.02,0,.03,0,.44.07,11.13,2.03,7.85,6.1-.02.02-.05.02-.07,0-.62-.62-.53-1.61-3.46-2.5,0,0,0,0,0,0-.31-.07-6.64-1.95-10.16-1.06-.01,0-.8.05-.82.05-.35.04-4.21,1.12-7.69,3.99-.26.22-1.49-1.03-1.38-1.36Z"/>
          <path class="cls-24" d="M468.75,320.31s2.76-3.82,8.81-4.06c0,0,5.59-.56,10.47,1.03,0,0,3.26.92,3.73,2.98,0,0-1.94,2.88-11.05,3.02,0,0-9.47.3-11.96-2.98Z"/>
          <path class="cls-4" d="M472.04,322.16s-.14-.26-1.74.64c-.53.3-.92.78-1.12,1.35-.13.38-.27.88-.38,1.5,0,0-.22,2.25-.82,3.35"/>
          <path class="cls-32" d="M465.59,327.99s3.15,1.71,5.18,1.67c0,0-.46.97-.76,2.35,0,0-.56,2.86-.62,3.41,0,0-4.18-1.03-4.76-1.67,0,0-.68-.48-1.22-.48,0,0,1.59-2.13,2.19-5.28Z"/>
          <path class="cls-20" d="M467.22,331.06s-.75-1.65-1.51-.46c-.16.26-.07.56.04.82.59,1.5.43,1.27.68,1.8,0,0,1.42-1,1.89-1.21.4-.18.44-1.42-1.1-.95Z"/>
          <path class="cls-10" d="M472.61,321.49s9.01,1.91,14.55-.46c0,0,2.72-.73,1.93-2.5,0,0,1.45.7-.47,2.25,0,0-5.69,3.33-16,.72Z"/>
          <path class="cls-10" d="M473.04,320.75s-2.25-.38.38-1.31c0,0,4.79-1.79,8.35-1.16,0,0-4.09-1.26-9.08.9-.21.09-.39.22-.55.38-.47.47-1.17,1.41.9,1.19Z"/>
        </g>
        <path class="cls-24" d="M474.35,334.92s8.47,1.87,12.47-.73l-.3.53s-6.3,2.6-12.17.2Z"/>
      </g>
      <path class="cls-32" d="M484.1,337.46s.67-2.28,7.28-2.98c0,0,5.55-.1,5.67,2.66,0,0,.67,2.47-5.23,3.75l-7.15-1.92s-.74-.77-.58-1.51Z"/>
      <path class="cls-28" d="M481.02,342.15s-1.79-2.53,6.48-5.39c0,0,5.8-1.64,6.12,2.05,0,0-.19,4.68-10,4.74,0,0-1.07.1-2.6-1.41Z"/>
      <path class="cls-24" d="M481.79,340.02s-1.3,1.9.82,2.7c0,0,2.02,1.06,5.55,0,0,0,3.56-1.41,4.52-3.05,0,0,.86-.81.7-1.83,0,0,1.48,1.86-.99,3.76,0,0-2.72,1.79-5.55,2.15,0,0-2.48.64-4.66-.55,0,0-2.64-1.17-.39-3.19Z"/>
      <path class="cls-24" d="M492.59,340.19l-.81,1.08s1.27.33,3.01-.54c0,0,2.53-1.01,2.45-3.03,0,0-.04-.73-.26-.99,0,0,.2,2.26-2.79,3.31,0,0-.97.3-1.6.17Z"/>
    </g>
    <g>
      <path class="cls-15" d="M127.58,339.83l13.26.6s-2.32,7.04,0,9.51c0,0,1.05,2.17,2.02,2.92,0,0,3.44,3.74,3.44,5.39,0,0,2.17,5.24-3.97,8.46,0,0-.22,1.87,1.27,1.95,0,0,5.39.9,5.92,2.17,0,0-.52,4.72-21.94,2.4,0,0-8.39-1.27-5.09-3,0,0,3.53-1.03,4.1-1.03,0,0,1.35,0,1.61-1.72,0,0-5.52-2.24-5.73-7.76,0,0-.05-2.97,3.13-6.3,0,0,3.18-2.97,3.13-7.71l-1.15-5.88Z"/>
      <g>
        <path class="cls-14" d="M114.51,301.06s-2.55,26.7-9.53,37.45c0,0,31.8,7.2,61.28-1.66,0,0-11.41-16.57-15.62-36.57,0,0-14.8-8.15-36.12.78Z"/>
        <path class="cls-42" d="M103.98,338.66l1.14.7s1.84-1.65,6.72-17.41c0,0,3.74-15.43,3.36-20.96l-1.19.22s-1.24,21.4-10.03,37.44Z"/>
        <path class="cls-21" d="M103.92,339.37l6.64.88s-1.26,4.51-5.04,3.92c0,0-3.72-.97-1.59-4.8Z"/>
        <path class="cls-21" d="M110.36,340.15s-1.02,5.34,3.05,5.43c0,0,3.88,1.11,5.43-4.32l-8.49-1.11Z"/>
        <path class="cls-21" d="M118.82,341.23l8.68.44s-.97,4.6-4.12,4.53c0,0-5.67.66-4.56-4.97Z"/>
        <path class="cls-21" d="M127.52,341.8s-.53,3.6,4.32,4.99c0,0,5.43.76,6.16-3.02v-2.18l-10.47.22Z"/>
        <path class="cls-21" d="M137.99,341.78s-.1,4.02,5.24,4.56c0,0,4.36.19,4.41-3.15,0,0-.15-1.5-.48-2.08l-9.16.68Z"/>
        <path class="cls-21" d="M147.26,341.12s.82,5.04,5.63,4.5c0,0,3.07-.03,3.1-2.89,0,0,.03-.92-.99-2.56l-7.74.95Z"/>
        <path class="cls-21" d="M155.2,340.17s1.47,5.52,7.09,3.85c0,0,4.23-.99,1.64-3.58,0,0-.55-.51-1.33-1.6l-7.4,1.33Z"/>
        <path class="cls-21" d="M162.61,339.22l5.36-1.26s4.24,1.16,1.93,3.27c0,0-1.74,1.5-4.91,0,0,0-1.98-1.26-2.37-2.01Z"/>
        <path class="cls-15" d="M119.25,299.37s-4.25,16.58,10.61,22.83c0,0,13.33,8.96,30.07,4.6,0,0-9.67-22.83-9.42-27.03,0,0-10.87-5.63-31.27-.4Z"/>
        <path class="cls-42" d="M104.37,337.94s-1.06-.33-1.1.68c0,0,.13,1.14,3.69,1.23,0,0,11.93,1.91,17.17,1.84,0,0,11.46.83,17.67,0,0,0,22.16-1.87,25.54-3.52,0,0,.8-.07,1.11-.85,0,0-.27-.78-1.21-.63,0,0-3.19,1.35-6.51,1.42,0,0-29.54,6.16-56.35-.17Z"/>
        <path class="cls-42" d="M113.41,300.44c-.07.29-.08.68.25.92.18.14.42.17.65.12.96-.2,4.37-.94,6.52-1.74,0,0,.02,0,.03,0,1.77-.36,9.02-2.07,19.57-1.57,0,0,7.06.57,10.76,2.16,0,0,.51.11.57.74,0,0,.96-.2.17-1.74-.1-.2-.28-.35-.48-.43-1.29-.5-6.29-2.36-9.2-2.21,0,0-13.08-.24-17.65.85,0,0-8.3,1.24-10.71,2.34-.23.11-.4.31-.46.56Z"/>
        <path class="cls-42" d="M124.49,298.61h2.06s1.99,26.22-3.63,42.27h-1.24s6.46-28.2,2.82-42.27Z"/>
        <path class="cls-42" d="M137.23,297.35l1.46.2s3.45,25.46,13.54,42.53l-1.69.2s-13.07-28.13-13.32-42.94Z"/>
        <path class="cls-42" d="M150.24,299.95l1.23.51s5.21,21.78,15.93,37.03l-1.05.48s-14.73-22.33-16.11-38.02Z"/>
      </g>
      <path class="cls-1" d="M144.13,355.73c-2.58.38-13.56,2.26-12.14,6.79.02.05.04.1.06.15.27.5,1.96,3.08,7.48,2.99,0,0,3.13.09,5.01-1.28.09-.07.17-.15.24-.24.54-.7,2.66-3.9.18-8.04-.17-.28-.5-.44-.83-.39Z"/>
      <ellipse class="cls-1" cx="128.99" cy="360.9" rx="1.3" ry="1.7"/>
      <path class="cls-12" d="M121.71,371.26s-.49,2.55.63,2.57c0,0,17.23,5.2,27.32-1.28,0,0,.12-.02-.13-1.72,0,0-8.86,6.7-27.81.43Z"/>
    </g>
    <g>
      <path class="cls-14" d="M394.95,213.31h1.07v37.03l.65.96s1.7.1,1.64,1c0,0,1.41.07,1.29,1,0,0,.19.87-1.25.97,0,0-.06.94-1.32.83,0,0-.06,1.84-1.03,1.91v73.57s3.41.82,3.61,5.04c0,0,5.21-.96,6.52,5.63h-11.2l.03-127.95Z"/>
      <path class="cls-16" d="M394.89,213.31h-1.07s0,37.03,0,37.03l-.65.96s-1.7.1-1.64,1c0,0-1.41.07-1.29,1,0,0-.19.87,1.25.97,0,0,.06.94,1.32.83,0,0,.06,1.84,1.03,1.91v73.57s-3.41.82-3.61,5.04c0,0-5.21-.96-6.52,5.63h11.2s-.03-127.95-.03-127.95Z"/>
      <path class="cls-14" d="M399.81,236.03s-1.13-.35,0-3.4c0,0,1.13,3.75,0,3.4Z"/>
      <g>
        <polygon class="cls-20" points="370.92 214.21 384.69 191.75 386.85 191.75 376.02 214.21 370.92 214.21"/>
        <polygon class="cls-17" points="376.44 214.21 387.23 191.75 391.49 191.75 385.99 214.21 376.44 214.21"/>
        <polygon class="cls-16" points="386.29 214.21 391.83 191.75 400.55 191.75 406.04 214.21 386.29 214.21"/>
        <polygon class="cls-14" points="400.86 191.75 406.27 214.21 415.62 214.21 404.84 191.75 400.86 191.75"/>
        <polygon class="cls-16" points="403.16 191.75 413.94 214.21 418.92 214.21 405.22 191.75 403.16 191.75"/>
      </g>
      <rect class="cls-16" x="399.52" y="214.21" width=".59" height="18.21"/>
    </g>
    <g>
      <path class="cls-11" d="M652.48,390.01s2.68,3.64,4.4,4.5"/>
      <path class="cls-43" d="M645.52,388.67s-.12,1.1-1.51.77c0,0-2.16,1.63-.65,5.08l18.79,13.28s.75.71,1.98,0l16.99-6.95s1.32-.25.27-1.44l-1.48-1.01.04,1.58-16.3,6.7s-1.12-2.91-.02-4.19c0,0,1.06.65,1.42-.43l16.2-6.28s1.4-.55.05-1.24l-3.4-1.67-32.38-4.18Z"/>
      <path class="cls-40" d="M663.68,402.44s.91.58,1.38-.4l16.13-6.21s.04.52-.54,1.1c-.43.43-.68,1-.66,1.61.02.41.1.9.31,1.43l-16.62,6.94s-1.32-2.76,0-4.46Z"/>
      <path class="cls-23" d="M663.53,404.18s11.35-4.4,11.69-4.4c0,0-10.27,4.19-11.69,4.4Z"/>
      <path class="cls-23" d="M672.56,399.94s5.31-2.32,6.65-2.53c0,0-5.68,2.39-6.65,2.53Z"/>
      <path class="cls-23" d="M665.63,404.58s10.99-4.89,12.48-5.02c0,0-11.92,5.07-12.48,5.02Z"/>
      <g>
        <path class="cls-24" d="M643.59,381.82s-1.53,2.05-.55,4.37l12.14,14.43s.72,1.29,3.24.45l19.5-4.72s1.69-.16.33-1.19l-1.38-.93s-.23,1.05.13,1.38l-20.32,4.66s-2.4-2.04-.18-4.58c0,0,.86.38,1.33-.26l19.98-3.27s.96,0,.42-.58l-34.65-9.77Z"/>
        <path class="cls-36" d="M656.51,395.7s-3.18,2.59.18,4.58l20.76-4.49s-1.2-2.13.61-3.59l-20.22,3.25s-.48.39-1.33.26Z"/>
        <path class="cls-24" d="M657.47,396.93s13.93-2.39,16.5-2.75c0,0-15.03,2.97-16.5,2.75Z"/>
        <path class="cls-24" d="M656.52,398.54s8.72-1.32,10.55-1.87c0,0-8.77,2.34-10.55,1.87Z"/>
        <path class="cls-24" d="M670.72,395.56s4.16-.59,5.37-.96c.17-.05.28-.1.32-.14.25-.32-3.5,1.6-5.68,1.1Z"/>
        <g>
          <path class="cls-39" d="M644.59,377.39s-3.62,1.43-.67,5.77l17.63,13.62,20.25-5.98s.69-.33,0-.99l-1.6-.9-.02,1.37-18.52,5.13s-1.8-2.3-.14-4.99l20.57-4.52s.51-.29,0-.98l-37.52-7.53Z"/>
          <path class="cls-42" d="M661.53,390.43s-1.83,1.8.06,5.12l18.72-5.13s-.57-3.51.94-4.34l-19.72,4.36Z"/>
          <path class="cls-39" d="M662.21,392.19s10.83-3.19,11.73-3.18c0,0-10.42,3.2-11.73,3.18Z"/>
          <path class="cls-39" d="M667.03,392.19s10.29-2.9,12.48-3.18c0,0-11.34,3.32-12.48,3.18Z"/>
          <path class="cls-39" d="M675.59,389.01s2.7-1.21,3.92-.91c0,0-2.28.44-3.92.91Z"/>
          <g>
            <path class="cls-34" d="M647.39,374.82l-1,.44s-2.63-.08-1.16,3.78l23.2,11.66s.55.41,1.27-.34c0,0,.17-.35.51,0l16.06-6.19s.55-.3-.88-1.02l-.58.6-15.3,5.54s-1.51-.71-.53-2.55l17.39-6.21s.63-.15.18-.72l-2.9-1.09-36.25-3.91Z"/>
            <path class="cls-41" d="M686.11,380.67l-17.1,5.99s-1.03,2.05.5,2.63l15.35-5.46s1.62-1.86,1.25-3.15Z"/>
            <path class="cls-34" d="M670.27,387.14s10.52-4.06,14.47-5.26c0,0-13.03,5.19-14.47,5.26Z"/>
            <path class="cls-34" d="M669.87,388.14s10.77-4.33,14.3-5.26c0,0-12.76,5-14.3,5.26Z"/>
            <g>
              <path class="cls-29" d="M685.06,375.25l-20.11,4.75s-1.89,2.21-.5,4.69l19.39-5s-1.38-2.93,1.23-4.44Z"/>
              <path class="cls-27" d="M667.29,380.56s13.25-3.38,15.2-3.48c0,0-13.08,3.1-15.2,3.48Z"/>
              <path class="cls-27" d="M665.53,381.91s12.56-3.15,13.81-3.09c0,0-12.38,3.34-13.81,3.09Z"/>
              <path class="cls-27" d="M664.62,383.08s4.43-1.08,5.36-1.15c0,0-3.99,1.41-5.36,1.15Z"/>
              <path class="cls-27" d="M646.29,368.31l18.35-3.62,20.28,9.71s.83.85-.34.97l-19.47,4.65s-2.17,2.38-.57,4.73l19.15-4.97-.06-.65,1.58.67s.55.65,0,.71l-21.4,5.53-18.55-12.68s-1.58-3.59,1.03-5.05Z"/>
              <path class="cls-29" d="M646.73,369.02s15.66,9.92,17.02,10.46c0,0-5.47-4.48-17.02-10.46Z"/>
            </g>
          </g>
        </g>
      </g>
      <path class="cls-42" d="M646.86,380.08s11.96,7.38,13.62,9.35"/>
    </g>
    <g>
      <path class="cls-34" d="M269.5,366.3l.93.49s2.51.09.86,3.68l-22.86,9.63s-.55.35-1.19-.41c0,0-.14-.34-.49-.03l-14.91-6.93s-.5-.32.91-.92l.52.61,14.23,6.26s1.49-.58.67-2.4l-16.18-7.03s-.59-.19-.12-.7l2.83-.85,34.81-1.41Z"/>
      <path class="cls-41" d="M232.21,369.4l15.92,6.8s.85,2.02-.64,2.47l-14.29-6.19"/>
      <path class="cls-34" d="M246.9,376.58s-9.77-4.54-13.46-5.94c0,0,12.09,5.78,13.46,5.94Z"/>
      <path class="cls-34" d="M247.21,377.56s-9.99-4.82-13.29-5.93c0,0,11.85,5.59,13.29,5.93Z"/>
      <path class="cls-24" d="M233.57,364.3l18.87,5.82s1.66,2.22.18,4.51l-18.16-6.01s1.51-2.71-.89-4.31Z"/>
      <path class="cls-39" d="M250.17,370.5s-12.41-4.07-14.26-4.29c0,0,12.27,3.79,14.26,4.29Z"/>
      <path class="cls-39" d="M251.76,371.9s-11.77-3.81-12.97-3.83c0,0,11.59,3.97,12.97,3.83Z"/>
      <path class="cls-39" d="M252.54,373.07s-4.16-1.31-5.04-1.44c0,0,3.71,1.6,5.04,1.44Z"/>
      <path class="cls-39" d="M270.97,360.16l-17.26-4.62-19.95,7.96s-.85.76.26.95l18.26,5.67s1.92,2.41.24,4.55l-17.94-5.97.1-.62-1.55.54s-.57.59-.05.68l20.04,6.64,18.5-10.9s1.74-3.32-.66-4.88Z"/>
      <path class="cls-24" d="M270.49,360.82s-15.57,8.46-16.89,8.88c0,0,5.5-3.92,16.89-8.88Z"/>
    </g>
  </g>
  <g id="Layer_4">
    <g>
      <ellipse class="cls-8" cx="351.96" cy="381.42" rx="60.23" ry="15.89"/>
      <ellipse class="cls-42" cx="351.96" cy="379.83" rx="52.99" ry="10.88"/>
      <ellipse class="cls-8" cx="352.83" cy="378.27" rx="33.13" ry="7.02"/>
      <ellipse class="cls-7" cx="352.83" cy="378.27" rx="21.18" ry="3.15"/>
    </g>
  </g>
</svg>